<svg width="153" height="48" viewBox="0 0 153 48" fill="none" xmlns="http://www.w3.org/2000/svg">
<path d="M54.0676 31.4614V36.9612H53.1211V31.4614H54.0676Z" fill="#FBB040"/>
<path d="M61.0699 31.461V37.2564L57.0164 33.2745V36.9607H56.0947V31.185L60.1482 35.1669V31.461H61.0699Z" fill="#FBB040"/>
<path d="M63.8445 35.7637C63.9741 35.9158 64.1323 36.0414 64.3103 36.1333C64.4864 36.2234 64.6821 36.2691 64.8802 36.2663C65.1053 36.2758 65.3259 36.2021 65.4996 36.0594C65.5766 35.9949 65.6379 35.914 65.6791 35.8227C65.7203 35.7314 65.7402 35.6321 65.7375 35.5321C65.7467 35.3556 65.6942 35.1815 65.5888 35.0392C65.4725 34.9076 65.331 34.8004 65.1725 34.7238C64.9729 34.6267 64.7677 34.5411 64.5581 34.4676C64.4193 34.4183 64.2657 34.3542 64.0972 34.2754C63.9212 34.1901 63.755 34.086 63.6017 33.9649C63.4476 33.8384 63.3182 33.6847 63.2201 33.5115C63.116 33.3071 63.0649 33.0802 63.0715 32.8512C63.0654 32.5745 63.145 32.3027 63.2994 32.0725C63.455 31.842 63.6709 31.658 63.9238 31.5403C64.2034 31.4126 64.5081 31.3486 64.8158 31.353C65.1109 31.3463 65.4038 31.4052 65.673 31.5255C65.9031 31.6352 66.1113 31.7855 66.2875 31.969C66.4454 32.1359 66.5773 32.3252 66.679 32.5308L65.9059 32.9694C65.8388 32.8298 65.752 32.7004 65.6483 32.585C65.5428 32.4694 65.4168 32.3742 65.2766 32.3041C65.1233 32.2269 64.9528 32.1896 64.7811 32.1957C64.5751 32.1782 64.3704 32.2419 64.2112 32.3731C64.153 32.4253 64.1065 32.4892 64.0749 32.5606C64.0433 32.6319 64.0273 32.7091 64.0279 32.7871C64.0271 32.9258 64.0724 33.0609 64.1567 33.1715C64.2709 33.3045 64.4108 33.4134 64.568 33.4918C64.7991 33.6121 65.0394 33.7143 65.2865 33.7974C65.457 33.8589 65.6227 33.933 65.782 34.0191C65.9492 34.1089 66.1026 34.2217 66.2379 34.3542C66.379 34.4961 66.4916 34.6634 66.5699 34.847C66.6535 35.0467 66.694 35.2616 66.6889 35.4778C66.6924 35.7176 66.6416 35.9551 66.5402 36.1727C66.4421 36.3726 66.3018 36.5491 66.1289 36.6902C65.9525 36.8301 65.753 36.9385 65.5392 37.0105C65.3179 37.0875 65.0849 37.1259 64.8504 37.1238C64.5376 37.1269 64.228 37.0613 63.9436 36.9316C63.673 36.8148 63.4274 36.6475 63.2201 36.4388C63.0185 36.2333 62.8513 35.9971 62.7246 35.739L63.4233 35.2462C63.5472 35.4314 63.6882 35.6046 63.8445 35.7637Z" fill="#FBB040"/>
<path d="M69.3751 31.4614V35.1279C69.3592 35.428 69.4563 35.7232 69.6476 35.9559C69.8698 36.1553 70.1585 36.2657 70.4578 36.2657C70.7571 36.2657 71.0458 36.1553 71.268 35.9559C71.4632 35.7251 71.5625 35.429 71.5455 35.1279V31.4614H72.4821V35.1674C72.4906 35.4428 72.4452 35.7173 72.3483 35.9756C72.2592 36.2087 72.1167 36.418 71.932 36.5867C71.7481 36.7575 71.5304 36.8884 71.2928 36.971C70.7634 37.1551 70.1869 37.1551 69.6575 36.971C69.419 36.8874 69.1998 36.7566 69.0133 36.5867C68.8286 36.418 68.6861 36.2087 68.5971 35.9756C68.4979 35.7143 68.4492 35.4367 68.4534 35.1575V31.4614H69.3751Z" fill="#FBB040"/>
<path d="M75.4004 31.4613V36.961H74.4688V31.4613H75.4004ZM75.0237 31.4613H76.1783C76.5405 31.4535 76.8997 31.5277 77.2289 31.6781C77.5119 31.8057 77.7526 32.0108 77.9226 32.2695C78.0915 32.5416 78.1776 32.8565 78.1704 33.1762C78.1765 33.4958 78.0905 33.8105 77.9226 34.083C77.7529 34.3432 77.5123 34.55 77.2289 34.6793C76.8993 34.828 76.5401 34.9005 76.1783 34.8912H75.0237V34.1274H76.1387C76.331 34.132 76.5221 34.095 76.6986 34.019C76.8532 33.9514 76.9842 33.8399 77.0753 33.6986C77.1594 33.5479 77.2036 33.3783 77.2036 33.2058C77.2036 33.0334 77.1594 32.8638 77.0753 32.713C76.9839 32.5731 76.8528 32.4633 76.6986 32.3976C76.5221 32.3215 76.331 32.2846 76.1387 32.2892H75.0237V31.4613ZM76.6243 34.3491L78.5024 36.961H77.3775L75.6085 34.3294L76.6243 34.3491Z" fill="#FBB040"/>
<path d="M81.2232 35.049V35.2559L80.4353 36.9611H79.3848L82.0953 31.136L84.8059 36.9611H83.7455L82.9922 35.2855L82.9675 35.0539L82.0953 33.0186L81.2232 35.049ZM80.8169 34.773H83.3936L83.577 35.5615H80.6434L80.8169 34.773Z" fill="#FBB040"/>
<path d="M91.2127 31.461V37.2564L87.1592 33.2745V36.9607H86.2227V31.185L90.2712 35.1669V31.461H91.2127Z" fill="#FBB040"/>
<path d="M94.1912 35.2463C94.3565 35.5324 94.5961 35.769 94.885 35.9313C95.1732 36.0899 95.4971 36.173 95.8265 36.1728C96.0683 36.1758 96.3092 36.1409 96.5401 36.0693C96.7443 36.0038 96.9379 35.9091 97.1149 35.7884C97.2813 35.6764 97.4314 35.5421 97.5609 35.3892V36.4931C97.3371 36.6801 97.0822 36.8269 96.8076 36.9268C96.4886 37.0339 96.1533 37.0856 95.8166 37.0795C95.4269 37.0832 95.0401 37.0129 94.6768 36.8726C94.3335 36.7405 94.0214 36.5391 93.7601 36.2812C93.501 36.0202 93.2971 35.7102 93.1605 35.3695C92.8697 34.633 92.8697 33.8144 93.1605 33.0779C93.2986 32.7368 93.5042 32.4268 93.7651 32.1662C94.0263 31.9082 94.3385 31.7069 94.6818 31.5748C95.045 31.4344 95.4318 31.3642 95.8215 31.3678C96.1584 31.3595 96.4941 31.4112 96.8126 31.5206C97.0871 31.6205 97.342 31.7672 97.5658 31.9543V33.0582C97.4364 32.9053 97.2863 32.771 97.1198 32.659C96.9429 32.5382 96.7493 32.4436 96.545 32.3781C96.3141 32.3065 96.0733 32.2716 95.8314 32.2746C95.5018 32.2722 95.1773 32.3554 94.8899 32.5161C94.6014 32.6766 94.3617 32.9116 94.1962 33.1962C94.0209 33.5097 93.9289 33.8625 93.9289 34.2212C93.9289 34.58 94.0209 34.9328 94.1962 35.2463H94.1912Z" fill="#FBB040"/>
<path d="M100.425 31.4614V36.9612H99.5029V31.4614H100.425ZM100.083 31.4614H102.882V32.2844H100.098L100.083 31.4614ZM100.083 33.6248H102.724V34.4281H100.098L100.083 33.6248ZM100.083 36.1628H102.882V36.9612H100.098L100.083 36.1628Z" fill="#FBB040"/>
<path d="M108.71 33.6786H109.607C109.763 33.6821 109.919 33.6518 110.063 33.5899C110.192 33.542 110.302 33.4546 110.378 33.3403C110.453 33.2261 110.491 33.0908 110.484 32.9541C110.49 32.8518 110.471 32.7496 110.428 32.6562C110.386 32.5627 110.322 32.4807 110.241 32.417C110.058 32.2841 109.834 32.218 109.607 32.2297H108.933V36.2166H109.711C109.903 36.2198 110.093 36.1846 110.271 36.1131C110.429 36.052 110.565 35.9456 110.662 35.8075C110.742 35.6721 110.789 35.5201 110.799 35.3636C110.809 35.2071 110.783 35.0503 110.722 34.9057C110.666 34.795 110.586 34.6976 110.489 34.6199C110.387 34.5443 110.27 34.4891 110.147 34.4572C110.005 34.4207 109.858 34.4025 109.711 34.403H108.72V33.9102H109.775C110.021 33.9128 110.266 33.9442 110.504 34.0038C110.73 34.058 110.946 34.1478 111.143 34.27C111.331 34.3933 111.483 34.5632 111.584 34.7628C111.694 34.9707 111.748 35.2031 111.743 35.4379C111.757 35.7584 111.667 36.0749 111.485 36.3398C111.307 36.5791 111.063 36.7609 110.781 36.8622C110.449 36.98 110.098 37.0368 109.746 37.0297H107.977V31.4609H109.651C109.965 31.457 110.277 31.5087 110.573 31.6137C110.823 31.6996 111.041 31.8595 111.198 32.072C111.358 32.2994 111.438 32.5732 111.425 32.8507C111.434 33.1032 111.353 33.3507 111.198 33.5504C111.035 33.7513 110.819 33.9018 110.573 33.9841C110.278 34.0915 109.966 34.1433 109.651 34.1369H108.69L108.71 33.6786Z" fill="#FBB040"/>
<path d="M114.468 31.4612V36.961H113.531V31.4612H114.468ZM114.086 31.4612H115.246C115.608 31.454 115.967 31.5281 116.296 31.678C116.582 31.8052 116.823 32.0134 116.989 32.2764C117.156 32.5395 117.241 32.8457 117.233 33.1565C117.244 33.471 117.16 33.7817 116.994 34.0492C116.827 34.3168 116.584 34.5292 116.296 34.6595C115.967 34.8078 115.608 34.8802 115.246 34.8715H114.086V34.1273H115.206C115.397 34.132 115.586 34.095 115.761 34.0189C115.916 33.9513 116.047 33.8399 116.138 33.6986C116.225 33.5487 116.271 33.3788 116.271 33.2057C116.271 33.0327 116.225 32.8628 116.138 32.7129C116.046 32.573 115.915 32.4633 115.761 32.3975C115.586 32.3214 115.397 32.2844 115.206 32.2891H114.086V31.4612ZM115.687 34.3491L117.58 36.961H116.45L114.681 34.3294L115.687 34.3491Z" fill="#FBB040"/>
<path d="M118.952 33.0777C119.092 32.7391 119.299 32.4322 119.562 32.1759C119.824 31.918 120.136 31.7152 120.479 31.5795C121.215 31.297 122.031 31.297 122.768 31.5795C123.109 31.7176 123.421 31.9201 123.685 32.1759C123.944 32.4337 124.15 32.7402 124.289 33.0777C124.574 33.8137 124.574 34.6283 124.289 35.3644C124.154 35.7085 123.948 36.0208 123.685 36.281C123.424 36.5393 123.114 36.7436 122.773 36.8822C122.032 37.1715 121.209 37.1715 120.469 36.8822C120.125 36.7466 119.812 36.5417 119.551 36.2806C119.291 36.0194 119.087 35.7075 118.952 35.3644C118.668 34.6283 118.668 33.8137 118.952 33.0777ZM119.973 35.2362C120.127 35.5262 120.359 35.7683 120.642 35.936C120.941 36.1008 121.277 36.1873 121.618 36.1873C121.96 36.1873 122.296 36.1008 122.595 35.936C122.876 35.7656 123.107 35.5242 123.264 35.2362C123.419 34.9209 123.499 34.5745 123.499 34.2235C123.499 33.8725 123.419 33.5261 123.264 33.2108C123.111 32.927 122.883 32.6902 122.605 32.5257C122.302 32.3574 121.96 32.269 121.613 32.269C121.266 32.269 120.925 32.3574 120.622 32.5257C120.338 32.692 120.106 32.9345 119.953 33.2255C119.794 33.5395 119.71 33.8864 119.71 34.2383C119.71 34.5901 119.794 34.9371 119.953 35.251L119.973 35.2362Z" fill="#FBB040"/>
<path d="M127.168 31.4614V36.9612H126.207V31.4614H127.168ZM130.355 31.4614L128.016 34.0487L130.493 37.0055H129.334L126.891 34.0979L129.24 31.486L130.355 31.4614Z" fill="#FBB040"/>
<path d="M132.853 31.4614V36.9612H131.906V31.4614H132.853Z" fill="#FBB040"/>
<path d="M139.854 31.461V37.2564L135.801 33.2745V36.9607H134.879V31.185L138.932 35.1669V31.461H139.854Z" fill="#FBB040"/>
<path d="M144.512 34.0978H147.173C147.185 34.4867 147.131 34.8747 147.015 35.2461C146.902 35.5948 146.724 35.9192 146.49 36.2021C146.254 36.4837 145.957 36.7093 145.622 36.8625C145.251 37.0254 144.849 37.1061 144.443 37.0991C144.049 37.1031 143.657 37.0329 143.289 36.8921C142.942 36.7585 142.626 36.5555 142.362 36.2958C142.099 36.0365 141.894 35.7261 141.757 35.3841C141.611 35.0138 141.539 34.6188 141.544 34.221C141.539 33.826 141.613 33.4339 141.762 33.0679C141.902 32.7293 142.11 32.4232 142.375 32.1688C142.639 31.9144 142.954 31.7171 143.298 31.5894C143.669 31.449 144.062 31.3788 144.458 31.3824C144.794 31.3777 145.129 31.4276 145.449 31.5303C145.737 31.6228 146.007 31.7646 146.247 31.9492C146.485 32.1298 146.688 32.3519 146.846 32.6046L146.083 33.0974C145.934 32.8333 145.715 32.615 145.449 32.4666C145.146 32.3014 144.804 32.2198 144.458 32.2301C144.12 32.2231 143.787 32.3068 143.493 32.4725C143.199 32.6382 142.956 32.8796 142.788 33.1713C142.607 33.4915 142.517 33.854 142.525 34.221C142.516 34.5891 142.605 34.9531 142.783 35.2757C142.946 35.5684 143.186 35.8119 143.477 35.9804C143.778 36.1514 144.121 36.2382 144.468 36.2317C144.695 36.2372 144.921 36.2039 145.137 36.1332C145.32 36.0671 145.488 35.9667 145.632 35.8375C145.775 35.7139 145.896 35.5673 145.989 35.4038C146.082 35.2499 146.154 35.0841 146.202 34.911H144.498L144.512 34.0978Z" fill="#FBB040"/>
<path d="M54.0676 31.4614V36.9612H53.1211V31.4614H54.0676Z" fill="url(#paint0_linear_216_12954)"/>
<path d="M61.0699 31.461V37.2564L57.0164 33.2745V36.9607H56.0947V31.185L60.1482 35.1669V31.461H61.0699Z" fill="url(#paint1_linear_216_12954)"/>
<path d="M63.8445 35.7637C63.9741 35.9158 64.1323 36.0414 64.3103 36.1333C64.4864 36.2234 64.6821 36.2691 64.8802 36.2663C65.1053 36.2758 65.3259 36.2021 65.4996 36.0594C65.5766 35.9949 65.6379 35.914 65.6791 35.8227C65.7203 35.7314 65.7402 35.6321 65.7375 35.5321C65.7467 35.3556 65.6942 35.1815 65.5888 35.0392C65.4725 34.9076 65.331 34.8004 65.1725 34.7238C64.9729 34.6267 64.7677 34.5411 64.5581 34.4676C64.4193 34.4183 64.2657 34.3542 64.0972 34.2754C63.9212 34.1901 63.755 34.086 63.6017 33.9649C63.4476 33.8384 63.3182 33.6847 63.2201 33.5115C63.116 33.3071 63.0649 33.0802 63.0715 32.8512C63.0654 32.5745 63.145 32.3027 63.2994 32.0725C63.455 31.842 63.6709 31.658 63.9238 31.5403C64.2034 31.4126 64.5081 31.3486 64.8158 31.353C65.1109 31.3463 65.4038 31.4052 65.673 31.5255C65.9031 31.6352 66.1113 31.7855 66.2875 31.969C66.4454 32.1359 66.5773 32.3252 66.679 32.5308L65.9059 32.9694C65.8388 32.8298 65.752 32.7004 65.6483 32.585C65.5428 32.4694 65.4168 32.3742 65.2766 32.3041C65.1233 32.2269 64.9528 32.1896 64.7811 32.1957C64.5751 32.1782 64.3704 32.2419 64.2112 32.3731C64.153 32.4253 64.1065 32.4892 64.0749 32.5606C64.0433 32.6319 64.0273 32.7091 64.0279 32.7871C64.0271 32.9258 64.0724 33.0609 64.1567 33.1715C64.2709 33.3045 64.4108 33.4134 64.568 33.4918C64.7991 33.6121 65.0394 33.7143 65.2865 33.7974C65.457 33.8589 65.6227 33.933 65.782 34.0191C65.9492 34.1089 66.1026 34.2217 66.2379 34.3542C66.379 34.4961 66.4916 34.6634 66.5699 34.847C66.6535 35.0467 66.694 35.2616 66.6889 35.4778C66.6924 35.7176 66.6416 35.9551 66.5402 36.1727C66.4421 36.3726 66.3018 36.5491 66.1289 36.6902C65.9525 36.8301 65.753 36.9385 65.5392 37.0105C65.3179 37.0875 65.0849 37.1259 64.8504 37.1238C64.5376 37.1269 64.228 37.0613 63.9436 36.9316C63.673 36.8148 63.4274 36.6475 63.2201 36.4388C63.0185 36.2333 62.8513 35.9971 62.7246 35.739L63.4233 35.2462C63.5472 35.4314 63.6882 35.6046 63.8445 35.7637Z" fill="url(#paint2_linear_216_12954)"/>
<path d="M69.3751 31.4614V35.1279C69.3592 35.428 69.4563 35.7232 69.6476 35.9559C69.8698 36.1553 70.1585 36.2657 70.4578 36.2657C70.7571 36.2657 71.0458 36.1553 71.268 35.9559C71.4632 35.7251 71.5625 35.429 71.5455 35.1279V31.4614H72.4821V35.1674C72.4906 35.4428 72.4452 35.7173 72.3483 35.9756C72.2592 36.2087 72.1167 36.418 71.932 36.5867C71.7481 36.7575 71.5304 36.8884 71.2928 36.971C70.7634 37.1551 70.1869 37.1551 69.6575 36.971C69.419 36.8874 69.1998 36.7566 69.0133 36.5867C68.8286 36.418 68.6861 36.2087 68.5971 35.9756C68.4979 35.7143 68.4492 35.4367 68.4534 35.1575V31.4614H69.3751Z" fill="url(#paint3_linear_216_12954)"/>
<path d="M75.4004 31.4613V36.961H74.4688V31.4613H75.4004ZM75.0237 31.4613H76.1783C76.5405 31.4535 76.8997 31.5277 77.2289 31.6781C77.5119 31.8057 77.7526 32.0108 77.9226 32.2695C78.0915 32.5416 78.1776 32.8565 78.1704 33.1762C78.1765 33.4958 78.0905 33.8105 77.9226 34.083C77.7529 34.3432 77.5123 34.55 77.2289 34.6793C76.8993 34.828 76.5401 34.9005 76.1783 34.8912H75.0237V34.1274H76.1387C76.331 34.132 76.5221 34.095 76.6986 34.019C76.8532 33.9514 76.9842 33.8399 77.0753 33.6986C77.1594 33.5479 77.2036 33.3783 77.2036 33.2058C77.2036 33.0334 77.1594 32.8638 77.0753 32.713C76.9839 32.5731 76.8528 32.4633 76.6986 32.3976C76.5221 32.3215 76.331 32.2846 76.1387 32.2892H75.0237V31.4613ZM76.6243 34.3491L78.5024 36.961H77.3775L75.6085 34.3294L76.6243 34.3491Z" fill="url(#paint4_linear_216_12954)"/>
<path d="M81.2232 35.049V35.2559L80.4353 36.9611H79.3848L82.0953 31.136L84.8059 36.9611H83.7455L82.9922 35.2855L82.9675 35.0539L82.0953 33.0186L81.2232 35.049ZM80.8169 34.773H83.3936L83.577 35.5615H80.6434L80.8169 34.773Z" fill="url(#paint5_linear_216_12954)"/>
<path d="M91.2127 31.461V37.2564L87.1592 33.2745V36.9607H86.2227V31.185L90.2712 35.1669V31.461H91.2127Z" fill="url(#paint6_linear_216_12954)"/>
<path d="M94.1912 35.2463C94.3565 35.5324 94.5961 35.769 94.885 35.9313C95.1732 36.0899 95.4971 36.173 95.8265 36.1728C96.0683 36.1758 96.3092 36.1409 96.5401 36.0693C96.7443 36.0038 96.9379 35.9091 97.1149 35.7884C97.2813 35.6764 97.4314 35.5421 97.5609 35.3892V36.4931C97.3371 36.6801 97.0822 36.8269 96.8076 36.9268C96.4886 37.0339 96.1533 37.0856 95.8166 37.0795C95.4269 37.0832 95.0401 37.0129 94.6768 36.8726C94.3335 36.7405 94.0214 36.5391 93.7601 36.2812C93.501 36.0202 93.2971 35.7102 93.1605 35.3695C92.8697 34.633 92.8697 33.8144 93.1605 33.0779C93.2986 32.7368 93.5042 32.4268 93.7651 32.1662C94.0263 31.9082 94.3385 31.7069 94.6818 31.5748C95.045 31.4344 95.4318 31.3642 95.8215 31.3678C96.1584 31.3595 96.4941 31.4112 96.8126 31.5206C97.0871 31.6205 97.342 31.7672 97.5658 31.9543V33.0582C97.4364 32.9053 97.2863 32.771 97.1198 32.659C96.9429 32.5382 96.7493 32.4436 96.545 32.3781C96.3141 32.3065 96.0733 32.2716 95.8314 32.2746C95.5018 32.2722 95.1773 32.3554 94.8899 32.5161C94.6014 32.6766 94.3617 32.9116 94.1962 33.1962C94.0209 33.5097 93.9289 33.8625 93.9289 34.2212C93.9289 34.58 94.0209 34.9328 94.1962 35.2463H94.1912Z" fill="url(#paint7_linear_216_12954)"/>
<path d="M100.425 31.4614V36.9612H99.5029V31.4614H100.425ZM100.083 31.4614H102.882V32.2844H100.098L100.083 31.4614ZM100.083 33.6248H102.724V34.4281H100.098L100.083 33.6248ZM100.083 36.1628H102.882V36.9612H100.098L100.083 36.1628Z" fill="url(#paint8_linear_216_12954)"/>
<path d="M108.71 33.6786H109.607C109.763 33.6821 109.919 33.6518 110.063 33.5899C110.192 33.542 110.302 33.4546 110.378 33.3403C110.453 33.2261 110.491 33.0908 110.484 32.9541C110.49 32.8518 110.471 32.7496 110.428 32.6562C110.386 32.5627 110.322 32.4807 110.241 32.417C110.058 32.2841 109.834 32.218 109.607 32.2297H108.933V36.2166H109.711C109.903 36.2198 110.093 36.1846 110.271 36.1131C110.429 36.052 110.565 35.9456 110.662 35.8075C110.742 35.6721 110.789 35.5201 110.799 35.3636C110.809 35.2071 110.783 35.0503 110.722 34.9057C110.666 34.795 110.586 34.6976 110.489 34.6199C110.387 34.5443 110.27 34.4891 110.147 34.4572C110.005 34.4207 109.858 34.4025 109.711 34.403H108.72V33.9102H109.775C110.021 33.9128 110.266 33.9442 110.504 34.0038C110.73 34.058 110.946 34.1478 111.143 34.27C111.331 34.3933 111.483 34.5632 111.584 34.7628C111.694 34.9707 111.748 35.2031 111.743 35.4379C111.757 35.7584 111.667 36.0749 111.485 36.3398C111.307 36.5791 111.063 36.7609 110.781 36.8622C110.449 36.98 110.098 37.0368 109.746 37.0297H107.977V31.4609H109.651C109.965 31.457 110.277 31.5087 110.573 31.6137C110.823 31.6996 111.041 31.8595 111.198 32.072C111.358 32.2994 111.438 32.5732 111.425 32.8507C111.434 33.1032 111.353 33.3507 111.198 33.5504C111.035 33.7513 110.819 33.9018 110.573 33.9841C110.278 34.0915 109.966 34.1433 109.651 34.1369H108.69L108.71 33.6786Z" fill="url(#paint9_linear_216_12954)"/>
<path d="M114.468 31.4612V36.961H113.531V31.4612H114.468ZM114.086 31.4612H115.246C115.608 31.454 115.967 31.5281 116.296 31.678C116.582 31.8052 116.823 32.0134 116.989 32.2764C117.156 32.5395 117.241 32.8457 117.233 33.1565C117.244 33.471 117.16 33.7817 116.994 34.0492C116.827 34.3168 116.584 34.5292 116.296 34.6595C115.967 34.8078 115.608 34.8802 115.246 34.8715H114.086V34.1273H115.206C115.397 34.132 115.586 34.095 115.761 34.0189C115.916 33.9513 116.047 33.8399 116.138 33.6986C116.225 33.5487 116.271 33.3788 116.271 33.2057C116.271 33.0327 116.225 32.8628 116.138 32.7129C116.046 32.573 115.915 32.4633 115.761 32.3975C115.586 32.3214 115.397 32.2844 115.206 32.2891H114.086V31.4612ZM115.687 34.3491L117.58 36.961H116.45L114.681 34.3294L115.687 34.3491Z" fill="url(#paint10_linear_216_12954)"/>
<path d="M118.952 33.0777C119.092 32.7391 119.299 32.4322 119.562 32.1759C119.824 31.918 120.136 31.7152 120.479 31.5795C121.215 31.297 122.031 31.297 122.768 31.5795C123.109 31.7176 123.421 31.9201 123.685 32.1759C123.944 32.4337 124.15 32.7402 124.289 33.0777C124.574 33.8137 124.574 34.6283 124.289 35.3644C124.154 35.7085 123.948 36.0208 123.685 36.281C123.424 36.5393 123.114 36.7436 122.773 36.8822C122.032 37.1715 121.209 37.1715 120.469 36.8822C120.125 36.7466 119.812 36.5417 119.551 36.2806C119.291 36.0194 119.087 35.7075 118.952 35.3644C118.668 34.6283 118.668 33.8137 118.952 33.0777ZM119.973 35.2362C120.127 35.5262 120.359 35.7683 120.642 35.936C120.941 36.1008 121.277 36.1873 121.618 36.1873C121.96 36.1873 122.296 36.1008 122.595 35.936C122.876 35.7656 123.107 35.5242 123.264 35.2362C123.419 34.9209 123.499 34.5745 123.499 34.2235C123.499 33.8725 123.419 33.5261 123.264 33.2108C123.111 32.927 122.883 32.6902 122.605 32.5257C122.302 32.3574 121.96 32.269 121.613 32.269C121.266 32.269 120.925 32.3574 120.622 32.5257C120.338 32.692 120.106 32.9345 119.953 33.2255C119.794 33.5395 119.71 33.8864 119.71 34.2383C119.71 34.5901 119.794 34.9371 119.953 35.251L119.973 35.2362Z" fill="url(#paint11_linear_216_12954)"/>
<path d="M127.168 31.4614V36.9612H126.207V31.4614H127.168ZM130.355 31.4614L128.016 34.0487L130.493 37.0055H129.334L126.891 34.0979L129.24 31.486L130.355 31.4614Z" fill="url(#paint12_linear_216_12954)"/>
<path d="M132.853 31.4614V36.9612H131.906V31.4614H132.853Z" fill="url(#paint13_linear_216_12954)"/>
<path d="M139.854 31.461V37.2564L135.801 33.2745V36.9607H134.879V31.185L138.932 35.1669V31.461H139.854Z" fill="url(#paint14_linear_216_12954)"/>
<path d="M144.512 34.0978H147.173C147.185 34.4867 147.131 34.8747 147.015 35.2461C146.902 35.5948 146.724 35.9192 146.49 36.2021C146.254 36.4837 145.957 36.7093 145.622 36.8625C145.251 37.0254 144.849 37.1061 144.443 37.0991C144.049 37.1031 143.657 37.0329 143.289 36.8921C142.942 36.7585 142.626 36.5555 142.362 36.2958C142.099 36.0365 141.894 35.7261 141.757 35.3841C141.611 35.0138 141.539 34.6188 141.544 34.221C141.539 33.826 141.613 33.4339 141.762 33.0679C141.902 32.7293 142.11 32.4232 142.375 32.1688C142.639 31.9144 142.954 31.7171 143.298 31.5894C143.669 31.449 144.062 31.3788 144.458 31.3824C144.794 31.3777 145.129 31.4276 145.449 31.5303C145.737 31.6228 146.007 31.7646 146.247 31.9492C146.485 32.1298 146.688 32.3519 146.846 32.6046L146.083 33.0974C145.934 32.8333 145.715 32.615 145.449 32.4666C145.146 32.3014 144.804 32.2198 144.458 32.2301C144.12 32.2231 143.787 32.3068 143.493 32.4725C143.199 32.6382 142.956 32.8796 142.788 33.1713C142.607 33.4915 142.517 33.854 142.525 34.221C142.516 34.5891 142.605 34.9531 142.783 35.2757C142.946 35.5684 143.186 35.8119 143.477 35.9804C143.778 36.1514 144.121 36.2382 144.468 36.2317C144.695 36.2372 144.921 36.2039 145.137 36.1332C145.32 36.0671 145.488 35.9667 145.632 35.8375C145.775 35.7139 145.896 35.5673 145.989 35.4038C146.082 35.2499 146.154 35.0841 146.202 34.911H144.498L144.512 34.0978Z" fill="url(#paint15_linear_216_12954)"/>
<path d="M54.2804 22.7581C54.6679 23.4189 55.2255 23.965 55.8958 24.3401C56.5604 24.7095 57.3099 24.9014 58.0712 24.897C58.6319 24.9047 59.1904 24.8249 59.7263 24.6604C60.2004 24.5099 60.6495 24.2907 61.0593 24.0099C61.4422 23.7474 61.7902 23.4378 62.0949 23.0883V25.6263C61.5718 26.0478 60.9825 26.3808 60.3506 26.6119C59.5925 26.8636 58.7958 26.9804 57.9969 26.9569C57.0949 26.9579 56.2007 26.7907 55.3606 26.4641C54.5697 26.1694 53.8478 25.7165 53.2397 25.1335C52.636 24.5301 52.1593 23.813 51.8374 23.0243C51.1636 21.3151 51.1636 19.416 51.8374 17.7068C52.1598 16.9169 52.6364 16.1983 53.2397 15.5926C53.8442 14.9954 54.5663 14.529 55.3606 14.2226C56.2007 13.896 57.0949 13.7289 57.9969 13.7298C58.7956 13.7091 59.5919 13.8259 60.3506 14.0748C60.9825 14.3059 61.5718 14.6389 62.0949 15.0604V17.6181C61.7866 17.2894 61.4388 16.9998 61.0593 16.7557C60.6482 16.4783 60.1993 16.2609 59.7263 16.1101C59.1907 15.9439 58.6322 15.8624 58.0712 15.8686C57.3091 15.8634 56.559 16.0571 55.8958 16.4304C55.2262 16.7999 54.6684 17.3411 54.2804 17.9976C53.8761 18.7265 53.664 19.5454 53.664 20.3779C53.664 21.2103 53.8761 22.0292 54.2804 22.7581Z" fill="#FBB040"/>
<path d="M64.5182 17.741C64.8313 16.9541 65.3035 16.2395 65.9057 15.6416C66.518 15.047 67.242 14.5782 68.0365 14.2617C69.7421 13.6046 71.633 13.6046 73.3387 14.2617C74.1288 14.5808 74.8491 15.0494 75.4595 15.6416C76.0761 16.2347 76.5606 16.9499 76.8817 17.741C77.22 18.5822 77.3884 19.4814 77.3773 20.3874C77.3862 21.2947 77.2179 22.1952 76.8817 23.0387C76.5678 23.8322 76.0939 24.5533 75.4893 25.1578C74.881 25.7587 74.1583 26.2329 73.3634 26.5525C71.65 27.2226 69.7449 27.2226 68.0315 26.5525C67.2331 26.2282 66.5097 25.7453 65.9057 25.1332C65.3062 24.5255 64.8345 23.8051 64.5182 23.0141C64.1844 22.1698 64.0161 21.2699 64.0226 20.3627C64.017 19.4653 64.1852 18.5751 64.5182 17.741ZM66.8967 22.7282C67.2543 23.4 67.7909 23.961 68.4478 24.3496C69.1409 24.731 69.9201 24.9311 70.7123 24.9311C71.5045 24.9311 72.2838 24.731 72.9769 24.3496C73.6298 23.9592 74.1628 23.3985 74.518 22.7282C74.9019 22.0063 75.0946 21.199 75.078 20.3824C75.0926 19.5673 74.9036 18.7613 74.5279 18.0367C74.1791 17.3664 73.6488 16.8065 72.9967 16.4202C72.301 16.0357 71.5182 15.834 70.7223 15.834C69.9263 15.834 69.1435 16.0357 68.4478 16.4202C67.7901 16.8056 67.2531 17.3653 66.8967 18.0367C66.5285 18.7644 66.3368 19.5678 66.3368 20.3824C66.3368 21.1971 66.5285 22.0005 66.8967 22.7282Z" fill="#FBB040"/>
<path d="M87.6297 13.9908H90.1074L83.8438 27.489L77.5654 13.9908H80.0431L83.824 22.9797L87.6297 13.9908Z" fill="#FBB040"/>
<path d="M93.75 13.9908V26.8039H91.6143V13.9908H93.75ZM92.9571 13.9908H99.4437V15.8881H92.9571V13.9908ZM92.9571 18.9929H99.077V20.8557H92.9571V18.9929ZM92.9571 24.877H99.4437V26.7793H92.9571V24.877Z" fill="#FBB040"/>
<path d="M104.275 13.9911V26.8042H102.104V13.9911H104.275ZM103.393 13.9911H106.074C106.912 13.9707 107.744 14.1392 108.507 14.4839C109.165 14.7812 109.724 15.2601 110.117 15.8638C110.506 16.4908 110.704 17.2166 110.687 17.9533C110.703 18.6929 110.505 19.4215 110.117 20.0527C109.729 20.6571 109.175 21.1391 108.522 21.4424C107.758 21.7872 106.927 21.9556 106.089 21.9352H103.408V20.166H105.999C106.444 20.1727 106.885 20.0854 107.293 19.9098C107.649 19.7515 107.951 19.4949 108.165 19.1706C108.38 18.8212 108.489 18.4171 108.477 18.0075C108.491 17.5961 108.383 17.1897 108.165 16.8395C107.951 16.5181 107.648 16.2649 107.293 16.1102C106.885 15.9322 106.444 15.8448 105.999 15.8539H103.408L103.393 13.9911ZM107.104 20.6983L111.455 26.8042H108.849L104.751 20.6983H107.104Z" fill="#FBB040"/>
<path d="M111.753 13.9908H120.717V15.9621H117.318V26.7793H115.132V15.9818H111.753V13.9908Z" fill="#FBB040"/>
<path d="M121.138 17.741C121.456 16.9532 121.935 16.2399 122.546 15.6465C123.157 15.051 123.882 14.5819 124.677 14.2666C126.38 13.6093 128.27 13.6093 129.974 14.2666C130.765 14.5845 131.485 15.0532 132.095 15.6465C132.705 16.2399 133.184 16.9532 133.502 17.741C133.84 18.5822 134.009 19.4814 133.998 20.3874C134.007 21.2947 133.838 22.1952 133.502 23.0387C133.185 23.8315 132.709 24.5523 132.105 25.1578C131.498 25.7582 130.777 26.2323 129.984 26.5525C128.269 27.2229 126.362 27.2229 124.647 26.5525C123.85 26.2282 123.128 25.7452 122.526 25.1332C121.926 24.5255 121.455 23.8051 121.138 23.0141C120.802 22.1705 120.634 21.2701 120.643 20.3627C120.635 19.4651 120.803 18.5745 121.138 17.741ZM123.497 22.7332C123.856 23.4053 124.395 23.9662 125.053 24.3545C125.745 24.7359 126.524 24.9361 127.315 24.9361C128.107 24.9361 128.885 24.7359 129.577 24.3545C130.233 23.9656 130.768 23.4046 131.123 22.7332C131.505 22.0103 131.697 21.2036 131.683 20.3874C131.698 19.5722 131.509 18.7662 131.133 18.0416C130.783 17.371 130.251 16.8111 129.597 16.4252C128.902 16.0407 128.12 15.8389 127.325 15.8389C126.53 15.8389 125.748 16.0407 125.053 16.4252C124.394 16.8103 123.855 17.3699 123.497 18.0416C123.129 18.7693 122.937 19.5727 122.937 20.3874C122.937 21.2021 123.129 22.0054 123.497 22.7332Z" fill="#FBB040"/>
<path d="M147.629 13.9911V27.4153L138.254 18.1898V26.7796H136.123V13.3504L145.513 22.5759V13.9911H147.629Z" fill="#FBB040"/>
<path d="M54.2804 22.7581C54.6679 23.4189 55.2255 23.965 55.8958 24.3401C56.5604 24.7095 57.3099 24.9014 58.0712 24.897C58.6319 24.9047 59.1904 24.8249 59.7263 24.6604C60.2004 24.5099 60.6495 24.2907 61.0593 24.0099C61.4422 23.7474 61.7902 23.4378 62.0949 23.0883V25.6263C61.5718 26.0478 60.9825 26.3808 60.3506 26.6119C59.5925 26.8636 58.7958 26.9804 57.9969 26.9569C57.0949 26.9579 56.2007 26.7907 55.3606 26.4641C54.5697 26.1694 53.8478 25.7165 53.2397 25.1335C52.636 24.5301 52.1593 23.813 51.8374 23.0243C51.1636 21.3151 51.1636 19.416 51.8374 17.7068C52.1598 16.9169 52.6364 16.1983 53.2397 15.5926C53.8442 14.9954 54.5663 14.529 55.3606 14.2226C56.2007 13.896 57.0949 13.7289 57.9969 13.7298C58.7956 13.7091 59.5919 13.8259 60.3506 14.0748C60.9825 14.3059 61.5718 14.6389 62.0949 15.0604V17.6181C61.7866 17.2894 61.4388 16.9998 61.0593 16.7557C60.6482 16.4783 60.1993 16.2609 59.7263 16.1101C59.1907 15.9439 58.6322 15.8624 58.0712 15.8686C57.3091 15.8634 56.559 16.0571 55.8958 16.4304C55.2262 16.7999 54.6684 17.3411 54.2804 17.9976C53.8761 18.7265 53.664 19.5454 53.664 20.3779C53.664 21.2103 53.8761 22.0292 54.2804 22.7581Z" fill="url(#paint16_linear_216_12954)"/>
<path d="M64.5182 17.741C64.8313 16.9541 65.3035 16.2395 65.9057 15.6416C66.518 15.047 67.242 14.5782 68.0365 14.2617C69.7421 13.6046 71.633 13.6046 73.3387 14.2617C74.1288 14.5808 74.8491 15.0494 75.4595 15.6416C76.0761 16.2347 76.5606 16.9499 76.8817 17.741C77.22 18.5822 77.3884 19.4814 77.3773 20.3874C77.3862 21.2947 77.2179 22.1952 76.8817 23.0387C76.5678 23.8322 76.0939 24.5533 75.4893 25.1578C74.881 25.7587 74.1583 26.2329 73.3634 26.5525C71.65 27.2226 69.7449 27.2226 68.0315 26.5525C67.2331 26.2282 66.5097 25.7453 65.9057 25.1332C65.3062 24.5255 64.8345 23.8051 64.5182 23.0141C64.1844 22.1698 64.0161 21.2699 64.0226 20.3627C64.017 19.4653 64.1852 18.5751 64.5182 17.741ZM66.8967 22.7282C67.2543 23.4 67.7909 23.961 68.4478 24.3496C69.1409 24.731 69.9201 24.9311 70.7123 24.9311C71.5045 24.9311 72.2838 24.731 72.9769 24.3496C73.6298 23.9592 74.1628 23.3985 74.518 22.7282C74.9019 22.0063 75.0946 21.199 75.078 20.3824C75.0926 19.5673 74.9036 18.7613 74.5279 18.0367C74.1791 17.3664 73.6488 16.8065 72.9967 16.4202C72.301 16.0357 71.5182 15.834 70.7223 15.834C69.9263 15.834 69.1435 16.0357 68.4478 16.4202C67.7901 16.8056 67.2531 17.3653 66.8967 18.0367C66.5285 18.7644 66.3368 19.5678 66.3368 20.3824C66.3368 21.1971 66.5285 22.0005 66.8967 22.7282Z" fill="url(#paint17_linear_216_12954)"/>
<path d="M87.6297 13.9908H90.1074L83.8438 27.489L77.5654 13.9908H80.0431L83.824 22.9797L87.6297 13.9908Z" fill="url(#paint18_linear_216_12954)"/>
<path d="M93.75 13.9908V26.8039H91.6143V13.9908H93.75ZM92.9571 13.9908H99.4437V15.8881H92.9571V13.9908ZM92.9571 18.9929H99.077V20.8557H92.9571V18.9929ZM92.9571 24.877H99.4437V26.7793H92.9571V24.877Z" fill="url(#paint19_linear_216_12954)"/>
<path d="M104.275 13.9911V26.8042H102.104V13.9911H104.275ZM103.393 13.9911H106.074C106.912 13.9707 107.744 14.1392 108.507 14.4839C109.165 14.7812 109.724 15.2601 110.117 15.8638C110.506 16.4908 110.704 17.2166 110.687 17.9533C110.703 18.6929 110.505 19.4215 110.117 20.0527C109.729 20.6571 109.175 21.1391 108.522 21.4424C107.758 21.7872 106.927 21.9556 106.089 21.9352H103.408V20.166H105.999C106.444 20.1727 106.885 20.0854 107.293 19.9098C107.649 19.7515 107.951 19.4949 108.165 19.1706C108.38 18.8212 108.489 18.4171 108.477 18.0075C108.491 17.5961 108.383 17.1897 108.165 16.8395C107.951 16.5181 107.648 16.2649 107.293 16.1102C106.885 15.9322 106.444 15.8448 105.999 15.8539H103.408L103.393 13.9911ZM107.104 20.6983L111.455 26.8042H108.849L104.751 20.6983H107.104Z" fill="url(#paint20_linear_216_12954)"/>
<path d="M111.753 13.9908H120.717V15.9621H117.318V26.7793H115.132V15.9818H111.753V13.9908Z" fill="url(#paint21_linear_216_12954)"/>
<path d="M121.138 17.741C121.456 16.9532 121.935 16.2399 122.546 15.6465C123.157 15.051 123.882 14.5819 124.677 14.2666C126.38 13.6093 128.27 13.6093 129.974 14.2666C130.765 14.5845 131.485 15.0532 132.095 15.6465C132.705 16.2399 133.184 16.9532 133.502 17.741C133.84 18.5822 134.009 19.4814 133.998 20.3874C134.007 21.2947 133.838 22.1952 133.502 23.0387C133.185 23.8315 132.709 24.5523 132.105 25.1578C131.498 25.7582 130.777 26.2323 129.984 26.5525C128.269 27.2229 126.362 27.2229 124.647 26.5525C123.85 26.2282 123.128 25.7452 122.526 25.1332C121.926 24.5255 121.455 23.8051 121.138 23.0141C120.802 22.1705 120.634 21.2701 120.643 20.3627C120.635 19.4651 120.803 18.5745 121.138 17.741ZM123.497 22.7332C123.856 23.4053 124.395 23.9662 125.053 24.3545C125.745 24.7359 126.524 24.9361 127.315 24.9361C128.107 24.9361 128.885 24.7359 129.577 24.3545C130.233 23.9656 130.768 23.4046 131.123 22.7332C131.505 22.0103 131.697 21.2036 131.683 20.3874C131.698 19.5722 131.509 18.7662 131.133 18.0416C130.783 17.371 130.251 16.8111 129.597 16.4252C128.902 16.0407 128.12 15.8389 127.325 15.8389C126.53 15.8389 125.748 16.0407 125.053 16.4252C124.394 16.8103 123.855 17.3699 123.497 18.0416C123.129 18.7693 122.937 19.5727 122.937 20.3874C122.937 21.2021 123.129 22.0054 123.497 22.7332Z" fill="url(#paint22_linear_216_12954)"/>
<path d="M147.629 13.9911V27.4153L138.254 18.1898V26.7796H136.123V13.3504L145.513 22.5759V13.9911H147.629Z" fill="url(#paint23_linear_216_12954)"/>
<path d="M24.1867 14.7107C26.3548 14.7049 28.5212 14.8332 30.6733 15.0951C29.6303 19.0222 28.0743 22.7965 26.045 26.3214C25.381 27.4844 24.7566 28.4602 24.1867 29.2782C23.6169 28.4602 22.9925 27.4844 22.3285 26.3214C20.2971 22.7975 18.7409 19.0229 17.7002 15.0951C19.8522 14.8329 22.0186 14.7045 24.1867 14.7107Z" fill="url(#paint24_linear_216_12954)"/>
<path d="M23.3495 41.8154C21.3674 41.0664 17.7054 37.9321 13.8155 31.1411C10.8745 26.0345 8.77495 20.4925 7.59654 14.7255C7.17113 12.615 6.93564 10.471 6.89288 8.31893C6.03064 8.9947 5.33506 9.85749 4.85928 10.8414C4.3835 11.8253 4.14009 12.9044 4.14763 13.9961C4.21701 14.415 4.29134 14.8388 4.37062 15.2577C7.20507 29.9239 17.5022 45.2503 24.1919 45.2503C26.2732 45.2503 28.7013 43.7719 31.1294 41.2733C29.9672 41.9668 28.6568 42.3774 27.3048 42.4716C25.9528 42.5658 24.5976 42.341 23.3495 41.8154Z" fill="url(#paint25_linear_216_12954)"/>
<path d="M33.9537 25.1781C34.702 25.3555 35.4403 25.5526 36.1737 25.7645C36.4958 25.8532 36.8179 25.9518 37.1351 26.0504C36.362 27.7801 35.4998 29.5001 34.5533 31.1411C33.1584 33.6619 31.4972 36.0276 29.598 38.1982C27.1699 40.889 25.1927 42.0027 24.2066 42.0027C23.9186 41.9892 23.6352 41.9259 23.3691 41.8155C24.6192 42.3434 25.9772 42.5696 27.332 42.4753C28.6868 42.3811 29.9999 41.9692 31.1639 41.2734C31.4513 40.981 31.7387 40.6754 32.0261 40.3567C34.9993 37.0598 37.9329 32.3633 40.2371 27.1346C40.4155 26.7255 40.5889 26.3165 40.7624 25.9075C40.8418 25.7187 40.882 25.5158 40.8804 25.3112C40.8787 25.1066 40.8354 24.9044 40.7529 24.7169C40.6705 24.5294 40.5506 24.3604 40.4006 24.2203C40.2507 24.0802 40.0736 23.9718 39.8803 23.9017C39.3451 23.7144 38.81 23.5321 38.2748 23.3645L37.8982 23.2463C37.2242 23.0393 36.5503 22.8471 35.8665 22.6647C35.0726 23.3726 34.4232 24.226 33.9537 25.1781Z" fill="url(#paint26_linear_216_12954)"/>
<path d="M40.1378 3.97195C38.8628 3.51276 37.5562 3.14549 36.2281 2.87297C32.264 2.0843 28.2292 1.70119 24.1866 1.72965C13.379 1.72965 3.62695 4.21836 3.62695 7.97852C3.63071 9.99419 3.79642 12.0063 4.12249 13.9958C4.11343 12.9023 4.35611 11.8214 4.83195 10.8356C5.30779 9.84987 6.00416 8.9855 6.86774 8.3087C7.30381 7.89474 8.76563 6.99289 12.0907 6.20439C16.0557 5.34819 20.1045 4.93495 24.1618 4.97236C28.2191 4.93536 32.2679 5.34859 36.233 6.20439H36.2727C39.5927 6.99782 41.0447 7.88489 41.4758 8.3087C41.4743 6.76283 41.0084 5.25265 40.1378 3.97195Z" fill="url(#paint27_linear_216_12954)"/>
<path d="M37.2693 15.5584C37.6898 13.775 37.9764 11.963 38.1265 10.1374C37.2715 9.82044 36.3956 9.56193 35.5052 9.36369C31.7871 8.56434 27.9909 8.18085 24.1872 8.22037C20.3884 8.18195 16.5972 8.56543 12.8841 9.36369C11.993 9.56602 11.1171 9.82948 10.2627 10.1522C10.7335 16.1399 13.0625 23.2315 16.6699 29.5345C20.1387 35.5764 23.0821 37.9912 24.202 38.6269C25.3071 37.9912 28.2456 35.5764 31.7143 29.5345C32.527 28.1152 33.2753 26.6565 33.9492 25.1781C34.4148 24.229 35.059 23.3774 35.8471 22.6696L35.1038 22.4775C34.5488 22.3444 33.9987 22.2163 33.4388 22.098C33.0028 22.0084 32.5491 22.07 32.1533 22.2727C31.7574 22.4753 31.4434 22.8068 31.2634 23.2117C31.0701 23.6503 30.8719 24.084 30.6638 24.5226C30.1138 25.6758 29.5241 26.8142 28.8848 27.9329C27.5989 30.2853 26.0206 32.4675 24.1872 34.4282C22.3521 32.4688 20.7737 30.2863 19.4895 27.9329C16.7123 23.1471 14.7925 17.9178 13.8157 12.4783C17.2259 11.7695 20.7034 11.4307 24.1872 11.468C27.6709 11.431 31.1484 11.7697 34.5587 12.4783C34.3902 13.5165 34.1689 14.5744 33.8947 15.652C33.7609 16.1793 33.6172 16.7066 33.4586 17.2388C33.4001 17.4386 33.3836 17.6482 33.41 17.8546C33.4363 18.061 33.5051 18.2598 33.612 18.4386C33.7189 18.6175 33.8616 18.7725 34.0312 18.8942C34.2009 19.0159 34.3939 19.1016 34.5983 19.146C35.1236 19.2594 35.6687 19.3826 36.0849 19.4861C36.5487 18.1929 36.9457 16.8771 37.2742 15.5436L37.2693 15.5584Z" fill="url(#paint28_linear_216_12954)"/>
<path d="M40.1386 3.97197C41.0091 5.25267 41.475 6.76285 41.4765 8.30872C41.4061 11.3273 40.982 14.3274 40.2129 17.2484L39.0484 16.8985C38.3943 16.7063 37.7204 16.519 37.0663 16.3514C36.7893 17.4089 36.4585 18.4517 36.0752 19.4759H36.1644C36.878 19.6582 37.5816 19.8504 38.2803 20.0623C38.6222 20.1609 38.9592 20.2644 39.3011 20.3728L40.3913 20.7375L41.2139 21.0233L41.3526 21.0775C41.4838 21.1259 41.6236 21.147 41.7633 21.1396C41.903 21.1323 42.0397 21.0966 42.165 21.0347C42.2903 20.9729 42.4016 20.8862 42.492 20.78C42.5824 20.6738 42.6499 20.5503 42.6906 20.4171C42.9036 19.7124 43.1019 19.0126 43.2852 18.303C44.2003 14.9271 44.6847 11.4501 44.7272 7.9539C44.7421 6.40647 42.9879 5.01673 40.1386 3.97197Z" fill="url(#paint29_linear_216_12954)"/>
<path d="M24.1874 38.6266C25.3073 37.9909 28.2458 35.5761 31.7145 29.5342C32.1357 28.7999 32.5371 28.0558 32.9236 27.2969C30.3469 32.0328 24.1874 37.5424 24.1874 37.5424C13.0875 27.6862 10.248 10.1519 10.248 10.1519C10.7188 16.1396 13.0478 23.2311 16.6553 29.5342C20.1092 35.5761 23.0675 37.9909 24.1874 38.6266Z" fill="url(#paint30_linear_216_12954)"/>
<defs>
<linearGradient id="paint0_linear_216_12954" x1="99.9045" y1="27.1345" x2="100.248" y2="38.8488" gradientUnits="userSpaceOnUse">
<stop stop-color="#27AAE1"/>
<stop offset="1" stop-color="#092053"/>
</linearGradient>
<linearGradient id="paint1_linear_216_12954" x1="99.9048" y1="27.1341" x2="100.248" y2="38.8483" gradientUnits="userSpaceOnUse">
<stop stop-color="#27AAE1"/>
<stop offset="1" stop-color="#092053"/>
</linearGradient>
<linearGradient id="paint2_linear_216_12954" x1="99.9045" y1="27.1345" x2="100.248" y2="38.8488" gradientUnits="userSpaceOnUse">
<stop stop-color="#27AAE1"/>
<stop offset="1" stop-color="#092053"/>
</linearGradient>
<linearGradient id="paint3_linear_216_12954" x1="99.9049" y1="27.1345" x2="100.248" y2="38.8488" gradientUnits="userSpaceOnUse">
<stop stop-color="#27AAE1"/>
<stop offset="1" stop-color="#092053"/>
</linearGradient>
<linearGradient id="paint4_linear_216_12954" x1="99.9045" y1="27.1344" x2="100.248" y2="38.8486" gradientUnits="userSpaceOnUse">
<stop stop-color="#27AAE1"/>
<stop offset="1" stop-color="#092053"/>
</linearGradient>
<linearGradient id="paint5_linear_216_12954" x1="99.9048" y1="27.1344" x2="100.248" y2="38.8487" gradientUnits="userSpaceOnUse">
<stop stop-color="#27AAE1"/>
<stop offset="1" stop-color="#092053"/>
</linearGradient>
<linearGradient id="paint6_linear_216_12954" x1="99.9043" y1="27.1341" x2="100.247" y2="38.8483" gradientUnits="userSpaceOnUse">
<stop stop-color="#27AAE1"/>
<stop offset="1" stop-color="#092053"/>
</linearGradient>
<linearGradient id="paint7_linear_216_12954" x1="99.9047" y1="27.1346" x2="100.248" y2="38.8488" gradientUnits="userSpaceOnUse">
<stop stop-color="#27AAE1"/>
<stop offset="1" stop-color="#092053"/>
</linearGradient>
<linearGradient id="paint8_linear_216_12954" x1="99.9043" y1="27.1345" x2="100.247" y2="38.8488" gradientUnits="userSpaceOnUse">
<stop stop-color="#27AAE1"/>
<stop offset="1" stop-color="#092053"/>
</linearGradient>
<linearGradient id="paint9_linear_216_12954" x1="99.9043" y1="27.134" x2="100.247" y2="38.8483" gradientUnits="userSpaceOnUse">
<stop stop-color="#27AAE1"/>
<stop offset="1" stop-color="#092053"/>
</linearGradient>
<linearGradient id="paint10_linear_216_12954" x1="99.9041" y1="27.1343" x2="100.247" y2="38.8486" gradientUnits="userSpaceOnUse">
<stop stop-color="#27AAE1"/>
<stop offset="1" stop-color="#092053"/>
</linearGradient>
<linearGradient id="paint11_linear_216_12954" x1="99.9042" y1="27.1344" x2="100.247" y2="38.8486" gradientUnits="userSpaceOnUse">
<stop stop-color="#27AAE1"/>
<stop offset="1" stop-color="#092053"/>
</linearGradient>
<linearGradient id="paint12_linear_216_12954" x1="99.9041" y1="27.1345" x2="100.247" y2="38.8488" gradientUnits="userSpaceOnUse">
<stop stop-color="#27AAE1"/>
<stop offset="1" stop-color="#092053"/>
</linearGradient>
<linearGradient id="paint13_linear_216_12954" x1="99.9047" y1="27.1345" x2="100.248" y2="38.8488" gradientUnits="userSpaceOnUse">
<stop stop-color="#27AAE1"/>
<stop offset="1" stop-color="#092053"/>
</linearGradient>
<linearGradient id="paint14_linear_216_12954" x1="99.9041" y1="27.1341" x2="100.247" y2="38.8483" gradientUnits="userSpaceOnUse">
<stop stop-color="#27AAE1"/>
<stop offset="1" stop-color="#092053"/>
</linearGradient>
<linearGradient id="paint15_linear_216_12954" x1="99.9046" y1="27.1344" x2="100.248" y2="38.8487" gradientUnits="userSpaceOnUse">
<stop stop-color="#27AAE1"/>
<stop offset="1" stop-color="#092053"/>
</linearGradient>
<linearGradient id="paint16_linear_216_12954" x1="99.1806" y1="7.28382" x2="99.8423" y2="29.6282" gradientUnits="userSpaceOnUse">
<stop stop-color="#27AAE1"/>
<stop offset="1" stop-color="#092053"/>
</linearGradient>
<linearGradient id="paint17_linear_216_12954" x1="99.1807" y1="7.28347" x2="99.8424" y2="29.6278" gradientUnits="userSpaceOnUse">
<stop stop-color="#27AAE1"/>
<stop offset="1" stop-color="#092053"/>
</linearGradient>
<linearGradient id="paint18_linear_216_12954" x1="99.1806" y1="7.28362" x2="99.8422" y2="29.628" gradientUnits="userSpaceOnUse">
<stop stop-color="#27AAE1"/>
<stop offset="1" stop-color="#092053"/>
</linearGradient>
<linearGradient id="paint19_linear_216_12954" x1="99.181" y1="7.28362" x2="99.8427" y2="29.628" gradientUnits="userSpaceOnUse">
<stop stop-color="#27AAE1"/>
<stop offset="1" stop-color="#092053"/>
</linearGradient>
<linearGradient id="paint20_linear_216_12954" x1="99.1808" y1="7.2839" x2="99.8425" y2="29.6283" gradientUnits="userSpaceOnUse">
<stop stop-color="#27AAE1"/>
<stop offset="1" stop-color="#092053"/>
</linearGradient>
<linearGradient id="paint21_linear_216_12954" x1="99.1813" y1="7.28362" x2="99.8429" y2="29.628" gradientUnits="userSpaceOnUse">
<stop stop-color="#27AAE1"/>
<stop offset="1" stop-color="#092053"/>
</linearGradient>
<linearGradient id="paint22_linear_216_12954" x1="99.1814" y1="7.28348" x2="99.843" y2="29.6278" gradientUnits="userSpaceOnUse">
<stop stop-color="#27AAE1"/>
<stop offset="1" stop-color="#092053"/>
</linearGradient>
<linearGradient id="paint23_linear_216_12954" x1="99.1811" y1="7.28388" x2="99.8427" y2="29.6282" gradientUnits="userSpaceOnUse">
<stop stop-color="#27AAE1"/>
<stop offset="1" stop-color="#092053"/>
</linearGradient>
<linearGradient id="paint24_linear_216_12954" x1="22.2492" y1="14.3756" x2="29.9252" y2="26.0891" gradientUnits="userSpaceOnUse">
<stop stop-color="#27AAE1"/>
<stop offset="1" stop-color="#092053"/>
</linearGradient>
<linearGradient id="paint25_linear_216_12954" x1="6.26851" y1="14.7797" x2="26.8477" y2="46.1922" gradientUnits="userSpaceOnUse">
<stop stop-color="#092053"/>
<stop offset="1" stop-color="#27AAE1"/>
</linearGradient>
<linearGradient id="paint26_linear_216_12954" x1="29.1867" y1="28.9333" x2="35.653" y2="38.8026" gradientUnits="userSpaceOnUse">
<stop stop-color="#27AAE1"/>
<stop offset="1" stop-color="#092053"/>
</linearGradient>
<linearGradient id="paint27_linear_216_12954" x1="16.9072" y1="1.07421" x2="27.9762" y2="17.9745" gradientUnits="userSpaceOnUse">
<stop stop-color="#27AAE1"/>
<stop offset="1" stop-color="#092053"/>
</linearGradient>
<linearGradient id="paint28_linear_216_12954" x1="24.8016" y1="7.35302" x2="19.1683" y2="37.9284" gradientUnits="userSpaceOnUse">
<stop stop-color="#FFDC60"/>
<stop offset="1" stop-color="#FDA76F"/>
</linearGradient>
<linearGradient id="paint29_linear_216_12954" x1="37.0217" y1="8.27423" x2="44.7026" y2="19.9927" gradientUnits="userSpaceOnUse">
<stop stop-color="#27AAE1"/>
<stop offset="1" stop-color="#092053"/>
</linearGradient>
<linearGradient id="paint30_linear_216_12954" x1="22.7553" y1="12.4583" x2="18.1025" y2="37.6896" gradientUnits="userSpaceOnUse">
<stop stop-color="#FDA76F"/>
<stop offset="1" stop-color="#FFDC60"/>
</linearGradient>
</defs>
</svg>
